<mxfile host="app.diagrams.net" agent="Mozilla/5.0 (Windows NT 10.0; Win64; x64) AppleWebKit/537.36 (KHTML, like Gecko) Chrome/129.0.0.0 Safari/537.36" version="24.7.17">
  <diagram name="Page-1" id="_fvydPcJTdJMvAr30C2L">
    <mxGraphModel dx="733" dy="422" grid="1" gridSize="10" guides="1" tooltips="1" connect="1" arrows="1" fold="1" page="1" pageScale="1" pageWidth="850" pageHeight="1100" math="0" shadow="0">
      <root>
        <mxCell id="0" />
        <mxCell id="1" parent="0" />
        <mxCell id="1ilgu0SeI3R6_H14Ya7X-1" value="Output:&lt;div&gt;+++*&lt;/div&gt;&lt;div&gt;++**&lt;br&gt;+***&lt;/div&gt;" style="whiteSpace=wrap;html=1;aspect=fixed;align=left;" parent="1" vertex="1">
          <mxGeometry x="730" y="20" width="80" height="80" as="geometry" />
        </mxCell>
        <mxCell id="73sUR4w42AFp7V4bTc31-3" style="edgeStyle=orthogonalEdgeStyle;rounded=0;orthogonalLoop=1;jettySize=auto;html=1;exitX=0.5;exitY=1;exitDx=0;exitDy=0;entryX=0.5;entryY=0;entryDx=0;entryDy=0;" edge="1" parent="1" source="73sUR4w42AFp7V4bTc31-1" target="73sUR4w42AFp7V4bTc31-2">
          <mxGeometry relative="1" as="geometry" />
        </mxCell>
        <mxCell id="73sUR4w42AFp7V4bTc31-1" value="Start" style="ellipse;whiteSpace=wrap;html=1;" vertex="1" parent="1">
          <mxGeometry x="365" y="30" width="120" height="40" as="geometry" />
        </mxCell>
        <mxCell id="73sUR4w42AFp7V4bTc31-5" style="edgeStyle=orthogonalEdgeStyle;rounded=0;orthogonalLoop=1;jettySize=auto;html=1;entryX=0.5;entryY=0;entryDx=0;entryDy=0;" edge="1" parent="1" source="73sUR4w42AFp7V4bTc31-2" target="73sUR4w42AFp7V4bTc31-4">
          <mxGeometry relative="1" as="geometry" />
        </mxCell>
        <mxCell id="73sUR4w42AFp7V4bTc31-2" value="int:&lt;div&gt;deret,&lt;/div&gt;&lt;div&gt;i = 1,&lt;/div&gt;&lt;div&gt;j = i,&lt;/div&gt;&lt;div&gt;k = 0&lt;/div&gt;" style="shape=hexagon;perimeter=hexagonPerimeter2;whiteSpace=wrap;html=1;fixedSize=1;" vertex="1" parent="1">
          <mxGeometry x="365" y="110" width="120" height="80" as="geometry" />
        </mxCell>
        <mxCell id="73sUR4w42AFp7V4bTc31-4" value="Input&lt;div&gt;deret&lt;/div&gt;" style="shape=parallelogram;perimeter=parallelogramPerimeter;whiteSpace=wrap;html=1;fixedSize=1;" vertex="1" parent="1">
          <mxGeometry x="360" y="230" width="130" height="40" as="geometry" />
        </mxCell>
      </root>
    </mxGraphModel>
  </diagram>
</mxfile>
